<svg xmlns="http://www.w3.org/2000/svg" xmlns:xlink="http://www.w3.org/1999/xlink" contentStyleType="text/css" data-diagram-type="ACTIVITY" height="1334px" preserveAspectRatio="none" style="width:835px;height:1334px;background:#FFFFFF;"
version="1.1" viewBox="0 0 835 1334" width="835px" zoomAndPan="magnify">
<title>WIM - Diagramme d'activit&#233;s (Ajout &amp; rappels)</title>
<defs/>
<g>
<g class="title" data-source-line="1">
<text fill="#000000" font-family="sans-serif" font-size="14" font-weight="bold" lengthAdjust="spacing" textLength="368.4775" x="231.9989" y="32.9951">WIM - Diagramme d'activit&#233;s (Ajout &amp; rappels)</text>
</g>
<ellipse cx="410.4143" cy="57.2969" fill="#222222" rx="10" ry="10" style="stroke:#222222;stroke-width:1;"/>
<rect fill="#FFFFFF" height="33.9688" rx="12.5" ry="12.5" style="stroke:#555555;stroke-width:0.5;" width="282.2773" x="269.2756" y="87.2969"/>
<text fill="#000000" font-family="sans-serif" font-size="12" lengthAdjust="spacing" textLength="262.2773" x="279.2756" y="108.4355">Ajouter un article (nom, mod&#232;le, desc, prix)</text>
<rect fill="#FFFFFF" height="33.9688" rx="12.5" ry="12.5" style="stroke:#555555;stroke-width:0.5;" width="275.4688" x="272.6799" y="141.2656"/>
<text fill="#000000" font-family="sans-serif" font-size="12" lengthAdjust="spacing" textLength="255.4688" x="282.6799" y="162.4043">Associer tags &amp; emplacements (optionnel)</text>
<polygon fill="#FFFFFF" points="334.835,195.2344,485.9937,195.2344,497.9937,207.2344,485.9937,219.2344,334.835,219.2344,322.835,207.2344,334.835,195.2344" style="stroke:#555555;stroke-width:0.5;"/>
<text fill="#000000" font-family="sans-serif" font-size="11" lengthAdjust="spacing" textLength="151.1587" x="334.835" y="211.0425">Facture / pi&#232;ce disponible ?</text>
<text fill="#000000" font-family="sans-serif" font-size="11" lengthAdjust="spacing" textLength="18.686" x="304.1489" y="204.6401">Oui</text>
<text fill="#000000" font-family="sans-serif" font-size="11" lengthAdjust="spacing" textLength="21.9302" x="497.9937" y="204.6401">Non</text>
<rect fill="#FFFFFF" height="33.9688" rx="12.5" ry="12.5" style="stroke:#555555;stroke-width:0.5;" width="322.5078" x="111.3708" y="229.2344"/>
<text fill="#000000" font-family="sans-serif" font-size="12" lengthAdjust="spacing" textLength="302.5078" x="121.3708" y="250.373">T&#233;l&#233;verser PDF/JPEG (v&#233;rif. signature + miniature)</text>
<rect fill="#FFFFFF" height="33.9688" rx="12.5" ry="12.5" style="stroke:#555555;stroke-width:0.5;" width="188.6504" x="453.8787" y="229.2344"/>
<text fill="#000000" font-family="sans-serif" font-size="12" lengthAdjust="spacing" textLength="168.6504" x="463.8787" y="250.373">Poursuivre sans pi&#232;ce jointe</text>
<polygon fill="#FFFFFF" points="410.4143,269.2031,422.4143,281.2031,410.4143,293.2031,398.4143,281.2031,410.4143,269.2031" style="stroke:#555555;stroke-width:0.5;"/>
<polygon fill="#FFFFFF" points="348.9045,313.2031,471.9241,313.2031,483.9241,325.2031,471.9241,337.2031,348.9045,337.2031,336.9045,325.2031,348.9045,313.2031" style="stroke:#555555;stroke-width:0.5;"/>
<text fill="#000000" font-family="sans-serif" font-size="11" lengthAdjust="spacing" textLength="123.0195" x="348.9045" y="329.0112">Ajouter une garantie ?</text>
<text fill="#000000" font-family="sans-serif" font-size="11" lengthAdjust="spacing" textLength="18.686" x="318.2185" y="322.6089">Oui</text>
<text fill="#000000" font-family="sans-serif" font-size="11" lengthAdjust="spacing" textLength="21.9302" x="483.9241" y="322.6089">Non</text>
<rect fill="#FFFFFF" height="33.9688" rx="12.5" ry="12.5" style="stroke:#555555;stroke-width:0.5;" width="228.4766" x="146.812" y="347.2031"/>
<text fill="#000000" font-family="sans-serif" font-size="12" lengthAdjust="spacing" textLength="208.4766" x="156.812" y="368.3418">Saisir date d'achat et dur&#233;e (mois)</text>
<rect fill="#FFFFFF" height="33.9688" rx="12.5" ry="12.5" style="stroke:#555555;stroke-width:0.5;" width="260.8496" x="130.6255" y="401.1719"/>
<text fill="#000000" font-family="sans-serif" font-size="12" lengthAdjust="spacing" textLength="240.8496" x="140.6255" y="422.3105">API calcule garantieFin = achat + dur&#233;e</text>
<rect fill="#FFFFFF" height="33.9688" rx="12.5" ry="12.5" style="stroke:#555555;stroke-width:0.5;" width="239.7676" x="141.1665" y="455.1406"/>
<text fill="#000000" font-family="sans-serif" font-size="12" lengthAdjust="spacing" textLength="219.7676" x="151.1665" y="476.2793">Enregistrer la garantie li&#233;e &#224; l'article</text>
<polygon fill="#FFFFFF" points="206.6465,509.1094,315.4541,509.1094,327.4541,521.1094,315.4541,533.1094,206.6465,533.1094,194.6465,521.1094,206.6465,509.1094" style="stroke:#555555;stroke-width:0.5;"/>
<text fill="#000000" font-family="sans-serif" font-size="11" lengthAdjust="spacing" textLength="108.8076" x="206.6465" y="524.9175">Configurer alertes ?</text>
<text fill="#000000" font-family="sans-serif" font-size="11" lengthAdjust="spacing" textLength="18.686" x="175.9604" y="518.5151">Oui</text>
<text fill="#000000" font-family="sans-serif" font-size="11" lengthAdjust="spacing" textLength="21.9302" x="327.4541" y="518.5151">Non</text>
<rect fill="#FFFFFF" height="33.9688" rx="12.5" ry="12.5" style="stroke:#555555;stroke-width:0.5;" width="222.5" x="33.0898" y="543.1094"/>
<text fill="#000000" font-family="sans-serif" font-size="12" lengthAdjust="spacing" textLength="202.5" x="43.0898" y="564.248">Proposer J-30 / J-7 / J-1 (&#233;ditables)</text>
<rect fill="#FFFFFF" height="33.9688" rx="12.5" ry="12.5" style="stroke:#555555;stroke-width:0.5;" width="266.6797" x="11" y="597.0781"/>
<text fill="#000000" font-family="sans-serif" font-size="12" lengthAdjust="spacing" textLength="246.6797" x="21" y="618.2168">Planifier des jobs BullMQ (file wim-alerts)</text>
<rect fill="#FFFFFF" height="33.9688" rx="12.5" ry="12.5" style="stroke:#555555;stroke-width:0.5;" width="160.1621" x="297.6797" y="543.1094"/>
<text fill="#000000" font-family="sans-serif" font-size="12" lengthAdjust="spacing" textLength="140.1621" x="307.6797" y="564.248">Poursuivre sans alertes</text>
<polygon fill="#FFFFFF" points="261.0503,637.0469,273.0503,649.0469,261.0503,661.0469,249.0503,649.0469,261.0503,637.0469" style="stroke:#555555;stroke-width:0.5;"/>
<rect fill="#FFFFFF" height="33.9688" rx="12.5" ry="12.5" style="stroke:#555555;stroke-width:0.5;" width="143.873" x="487.8418" y="347.2031"/>
<text fill="#000000" font-family="sans-serif" font-size="12" lengthAdjust="spacing" textLength="123.873" x="497.8418" y="368.3418">Article sans garantie</text>
<polygon fill="#FFFFFF" points="410.4143,667.0469,422.4143,679.0469,410.4143,691.0469,398.4143,679.0469,410.4143,667.0469" style="stroke:#555555;stroke-width:0.5;"/>
<rect fill="#FFFFFF" height="33.9688" rx="12.5" ry="12.5" style="stroke:#555555;stroke-width:0.5;" width="381.9863" x="219.4211" y="711.0469"/>
<text fill="#000000" font-family="sans-serif" font-size="12" lengthAdjust="spacing" textLength="361.9863" x="229.4211" y="732.1855">Sauvegarder (Article / Garantie / Alerte) + journaliser l'audit</text>
<rect fill="#FFFFFF" height="33.9688" rx="12.5" ry="12.5" style="stroke:#555555;stroke-width:0.5;" width="246.0078" x="287.4104" y="765.0156"/>
<text fill="#000000" font-family="sans-serif" font-size="12" lengthAdjust="spacing" textLength="226.0078" x="297.4104" y="786.1543">[Plus tard] &#201;ch&#233;ance d'un job d'alerte</text>
<rect fill="#FFFFFF" height="33.9688" rx="12.5" ry="12.5" style="stroke:#555555;stroke-width:0.5;" width="252.1484" x="284.3401" y="818.9844"/>
<text fill="#000000" font-family="sans-serif" font-size="12" lengthAdjust="spacing" textLength="232.1484" x="294.3401" y="840.123">Charger le contexte (garantie / article)</text>
<rect fill="#FFFFFF" height="33.9688" rx="12.5" ry="12.5" style="stroke:#555555;stroke-width:0.5;" width="370.9883" x="224.9202" y="872.9531"/>
<text fill="#000000" font-family="sans-serif" font-size="12" lengthAdjust="spacing" textLength="350.9883" x="234.9202" y="894.0918">Envoyer la notification push (obligatoire, rejou&#233;e si &#233;chec)</text>
<polygon fill="#FFFFFF" points="304.9529,926.9219,515.8757,926.9219,527.8757,938.9219,515.8757,950.9219,304.9529,950.9219,292.9529,938.9219,304.9529,926.9219" style="stroke:#555555;stroke-width:0.5;"/>
<text fill="#000000" font-family="sans-serif" font-size="11" lengthAdjust="spacing" textLength="210.9229" x="304.9529" y="942.73">E-mail configur&#233; ET opt-in utilisateur ?</text>
<text fill="#000000" font-family="sans-serif" font-size="11" lengthAdjust="spacing" textLength="18.686" x="274.2668" y="936.3276">Oui</text>
<text fill="#000000" font-family="sans-serif" font-size="11" lengthAdjust="spacing" textLength="21.9302" x="527.8757" y="936.3276">Non</text>
<rect fill="#FFFFFF" height="33.9688" rx="12.5" ry="12.5" style="stroke:#555555;stroke-width:0.5;" width="335.416" x="115.2449" y="960.9219"/>
<text fill="#000000" font-family="sans-serif" font-size="12" lengthAdjust="spacing" textLength="315.416" x="125.2449" y="982.0605">Envoyer l'e-mail (best-effort, n'&#233;choue jamais le job)</text>
<rect fill="#FFFFFF" height="33.9688" rx="12.5" ry="12.5" style="stroke:#555555;stroke-width:0.5;" width="111.2246" x="482.2634" y="960.9219"/>
<text fill="#000000" font-family="sans-serif" font-size="12" lengthAdjust="spacing" textLength="91.2246" x="492.2634" y="982.0605">Ignorer l'e-mail</text>
<polygon fill="#FFFFFF" points="410.4143,1000.8906,422.4143,1012.8906,410.4143,1024.8906,398.4143,1012.8906,410.4143,1000.8906" style="stroke:#555555;stroke-width:0.5;"/>
<rect fill="#FFFFFF" height="33.9688" rx="12.5" ry="12.5" style="stroke:#555555;stroke-width:0.5;" width="151.0391" x="334.8948" y="1044.8906"/>
<text fill="#000000" font-family="sans-serif" font-size="12" lengthAdjust="spacing" textLength="131.0391" x="344.8948" y="1066.0293">Marquer l'alerte SENT</text>
<polygon fill="#FFFFFF" points="336.4329,1098.8594,484.3958,1098.8594,496.3958,1110.8594,484.3958,1122.8594,336.4329,1122.8594,324.4329,1110.8594,336.4329,1098.8594" style="stroke:#555555;stroke-width:0.5;"/>
<text fill="#000000" font-family="sans-serif" font-size="11" lengthAdjust="spacing" textLength="147.9629" x="336.4329" y="1114.6675">Alerte custom r&#233;currente ?</text>
<text fill="#000000" font-family="sans-serif" font-size="11" lengthAdjust="spacing" textLength="18.686" x="305.7468" y="1108.2651">Oui</text>
<text fill="#000000" font-family="sans-serif" font-size="11" lengthAdjust="spacing" textLength="21.9302" x="496.3958" y="1108.2651">Non</text>
<rect fill="#FFFFFF" height="33.9688" rx="12.5" ry="12.5" style="stroke:#555555;stroke-width:0.5;" width="298.3613" x="130.6394" y="1132.8594"/>
<text fill="#000000" font-family="sans-serif" font-size="12" lengthAdjust="spacing" textLength="278.3613" x="140.6394" y="1153.998">Replanifier la prochaine occurrence (+N mois)</text>
<rect fill="#FFFFFF" height="33.9688" rx="12.5" ry="12.5" style="stroke:#555555;stroke-width:0.5;" width="184.0156" x="449.0007" y="1132.8594"/>
<text fill="#000000" font-family="sans-serif" font-size="12" lengthAdjust="spacing" textLength="164.0156" x="459.0007" y="1153.998">Fin du cycle de cette alerte</text>
<polygon fill="#FFFFFF" points="410.4143,1172.8281,422.4143,1184.8281,410.4143,1196.8281,398.4143,1184.8281,410.4143,1172.8281" style="stroke:#555555;stroke-width:0.5;"/>
<path d="M441.4143,1206.8281 L441.4143,1260.793 L421.4143,1264.793 L441.4143,1268.793 L441.4143,1322.7578 A0,0 0 0 0 441.4143,1322.7578 L823.4753,1322.7578 A0,0 0 0 0 823.4753,1322.7578 L823.4753,1216.8281
L813.4753,1206.8281 L441.4143,1206.8281 A0,0 0 0 0 441.4143,1206.8281" fill="#F5F7FF" style="stroke:#6B7280;stroke-width:0.5;"/>
<path d="M813.4753,1206.8281 L813.4753,1216.8281 L823.4753,1216.8281 L813.4753,1206.8281" fill="#F5F7FF" style="stroke:#6B7280;stroke-width:0.5;"/>
<text fill="#000000" font-family="sans-serif" font-size="13" lengthAdjust="spacing" textLength="169.6919" x="447.4143" y="1223.895">Hypoth&#232;ses (&#233;tat actuel) :</text>
<text fill="#000000" font-family="sans-serif" font-size="13" lengthAdjust="spacing" textLength="361.061" x="447.4143" y="1239.0278">- Push (VAPID) + e-mail (Resend), tous deux best-effort</text>
<text fill="#000000" font-family="sans-serif" font-size="13" lengthAdjust="spacing" textLength="241.4712" x="447.4143" y="1254.1606">- Ordre : push -&gt; e-mail -&gt; markSent</text>
<text fill="#000000" font-family="sans-serif" font-size="13" lengthAdjust="spacing" textLength="338.4126" x="455.679" y="1269.2935">(un push en &#233;chec ne marque PAS l'alerte envoy&#233;e)</text>
<text fill="#000000" font-family="sans-serif" font-size="13" lengthAdjust="spacing" textLength="247.2095" x="447.4143" y="1284.4263">- Planification via jobs BullMQ + Redis</text>
<text fill="#000000" font-family="sans-serif" font-size="13" lengthAdjust="spacing" textLength="223.5073" x="447.4143" y="1299.5591">- garantieFin calcul&#233;e c&#244;t&#233; service</text>
<text fill="#000000" font-family="sans-serif" font-size="13" lengthAdjust="spacing" textLength="229.6138" x="447.4143" y="1314.6919">- Import/Export CSV hors de ce flux</text>
<ellipse cx="410.4143" cy="1264.793" fill="none" rx="11" ry="11" style="stroke:#222222;stroke-width:1;"/>
<ellipse cx="410.4143" cy="1264.793" fill="#222222" rx="6" ry="6" style="stroke:#222222;stroke-width:1;"/>
<line style="stroke:#555555;stroke-width:1;" x1="410.4143" x2="410.4143" y1="67.2969" y2="87.2969"/>
<polygon fill="#555555" points="406.4143,77.2969,410.4143,87.2969,414.4143,77.2969,410.4143,81.2969" style="stroke:#555555;stroke-width:1;"/>
<line style="stroke:#555555;stroke-width:1;" x1="410.4143" x2="410.4143" y1="121.2656" y2="141.2656"/>
<polygon fill="#555555" points="406.4143,131.2656,410.4143,141.2656,414.4143,131.2656,410.4143,135.2656" style="stroke:#555555;stroke-width:1;"/>
<line style="stroke:#555555;stroke-width:1;" x1="322.835" x2="272.6248" y1="207.2344" y2="207.2344"/>
<line style="stroke:#555555;stroke-width:1;" x1="272.6248" x2="272.6248" y1="207.2344" y2="229.2344"/>
<polygon fill="#555555" points="268.6248,219.2344,272.6248,229.2344,276.6248,219.2344,272.6248,223.2344" style="stroke:#555555;stroke-width:1;"/>
<line style="stroke:#555555;stroke-width:1;" x1="497.9937" x2="548.2039" y1="207.2344" y2="207.2344"/>
<line style="stroke:#555555;stroke-width:1;" x1="548.2039" x2="548.2039" y1="207.2344" y2="229.2344"/>
<polygon fill="#555555" points="544.2039,219.2344,548.2039,229.2344,552.2039,219.2344,548.2039,223.2344" style="stroke:#555555;stroke-width:1;"/>
<line style="stroke:#555555;stroke-width:1;" x1="272.6248" x2="272.6248" y1="263.2031" y2="281.2031"/>
<line style="stroke:#555555;stroke-width:1;" x1="272.6248" x2="398.4143" y1="281.2031" y2="281.2031"/>
<polygon fill="#555555" points="388.4143,277.2031,398.4143,281.2031,388.4143,285.2031,392.4143,281.2031" style="stroke:#555555;stroke-width:1;"/>
<line style="stroke:#555555;stroke-width:1;" x1="548.2039" x2="548.2039" y1="263.2031" y2="281.2031"/>
<line style="stroke:#555555;stroke-width:1;" x1="548.2039" x2="422.4143" y1="281.2031" y2="281.2031"/>
<polygon fill="#555555" points="432.4143,277.2031,422.4143,281.2031,432.4143,285.2031,428.4143,281.2031" style="stroke:#555555;stroke-width:1;"/>
<line style="stroke:#555555;stroke-width:1;" x1="410.4143" x2="410.4143" y1="175.2344" y2="195.2344"/>
<polygon fill="#555555" points="406.4143,185.2344,410.4143,195.2344,414.4143,185.2344,410.4143,189.2344" style="stroke:#555555;stroke-width:1;"/>
<line style="stroke:#555555;stroke-width:1;" x1="261.0503" x2="261.0503" y1="381.1719" y2="401.1719"/>
<polygon fill="#555555" points="257.0503,391.1719,261.0503,401.1719,265.0503,391.1719,261.0503,395.1719" style="stroke:#555555;stroke-width:1;"/>
<line style="stroke:#555555;stroke-width:1;" x1="261.0503" x2="261.0503" y1="435.1406" y2="455.1406"/>
<polygon fill="#555555" points="257.0503,445.1406,261.0503,455.1406,265.0503,445.1406,261.0503,449.1406" style="stroke:#555555;stroke-width:1;"/>
<line style="stroke:#555555;stroke-width:1;" x1="144.3398" x2="144.3398" y1="577.0781" y2="597.0781"/>
<polygon fill="#555555" points="140.3398,587.0781,144.3398,597.0781,148.3398,587.0781,144.3398,591.0781" style="stroke:#555555;stroke-width:1;"/>
<line style="stroke:#555555;stroke-width:1;" x1="194.6465" x2="144.3398" y1="521.1094" y2="521.1094"/>
<line style="stroke:#555555;stroke-width:1;" x1="144.3398" x2="144.3398" y1="521.1094" y2="543.1094"/>
<polygon fill="#555555" points="140.3398,533.1094,144.3398,543.1094,148.3398,533.1094,144.3398,537.1094" style="stroke:#555555;stroke-width:1;"/>
<line style="stroke:#555555;stroke-width:1;" x1="327.4541" x2="377.7607" y1="521.1094" y2="521.1094"/>
<line style="stroke:#555555;stroke-width:1;" x1="377.7607" x2="377.7607" y1="521.1094" y2="543.1094"/>
<polygon fill="#555555" points="373.7607,533.1094,377.7607,543.1094,381.7607,533.1094,377.7607,537.1094" style="stroke:#555555;stroke-width:1;"/>
<line style="stroke:#555555;stroke-width:1;" x1="144.3398" x2="144.3398" y1="631.0469" y2="649.0469"/>
<line style="stroke:#555555;stroke-width:1;" x1="144.3398" x2="249.0503" y1="649.0469" y2="649.0469"/>
<polygon fill="#555555" points="239.0503,645.0469,249.0503,649.0469,239.0503,653.0469,243.0503,649.0469" style="stroke:#555555;stroke-width:1;"/>
<line style="stroke:#555555;stroke-width:1;" x1="377.7607" x2="377.7607" y1="577.0781" y2="649.0469"/>
<line style="stroke:#555555;stroke-width:1;" x1="377.7607" x2="273.0503" y1="649.0469" y2="649.0469"/>
<polygon fill="#555555" points="283.0503,645.0469,273.0503,649.0469,283.0503,653.0469,279.0503,649.0469" style="stroke:#555555;stroke-width:1;"/>
<line style="stroke:#555555;stroke-width:1;" x1="261.0503" x2="261.0503" y1="489.1094" y2="509.1094"/>
<polygon fill="#555555" points="257.0503,499.1094,261.0503,509.1094,265.0503,499.1094,261.0503,503.1094" style="stroke:#555555;stroke-width:1;"/>
<line style="stroke:#555555;stroke-width:1;" x1="336.9045" x2="261.0503" y1="325.2031" y2="325.2031"/>
<line style="stroke:#555555;stroke-width:1;" x1="261.0503" x2="261.0503" y1="325.2031" y2="347.2031"/>
<polygon fill="#555555" points="257.0503,337.2031,261.0503,347.2031,265.0503,337.2031,261.0503,341.2031" style="stroke:#555555;stroke-width:1;"/>
<line style="stroke:#555555;stroke-width:1;" x1="483.9241" x2="559.7783" y1="325.2031" y2="325.2031"/>
<line style="stroke:#555555;stroke-width:1;" x1="559.7783" x2="559.7783" y1="325.2031" y2="347.2031"/>
<polygon fill="#555555" points="555.7783,337.2031,559.7783,347.2031,563.7783,337.2031,559.7783,341.2031" style="stroke:#555555;stroke-width:1;"/>
<line style="stroke:#555555;stroke-width:1;" x1="261.0503" x2="261.0503" y1="661.0469" y2="679.0469"/>
<line style="stroke:#555555;stroke-width:1;" x1="261.0503" x2="398.4143" y1="679.0469" y2="679.0469"/>
<polygon fill="#555555" points="388.4143,675.0469,398.4143,679.0469,388.4143,683.0469,392.4143,679.0469" style="stroke:#555555;stroke-width:1;"/>
<line style="stroke:#555555;stroke-width:1;" x1="559.7783" x2="559.7783" y1="381.1719" y2="679.0469"/>
<line style="stroke:#555555;stroke-width:1;" x1="559.7783" x2="422.4143" y1="679.0469" y2="679.0469"/>
<polygon fill="#555555" points="432.4143,675.0469,422.4143,679.0469,432.4143,683.0469,428.4143,679.0469" style="stroke:#555555;stroke-width:1;"/>
<line style="stroke:#555555;stroke-width:1;" x1="410.4143" x2="410.4143" y1="293.2031" y2="313.2031"/>
<polygon fill="#555555" points="406.4143,303.2031,410.4143,313.2031,414.4143,303.2031,410.4143,307.2031" style="stroke:#555555;stroke-width:1;"/>
<line style="stroke:#555555;stroke-width:1;" x1="410.4143" x2="410.4143" y1="691.0469" y2="711.0469"/>
<polygon fill="#555555" points="406.4143,701.0469,410.4143,711.0469,414.4143,701.0469,410.4143,705.0469" style="stroke:#555555;stroke-width:1;"/>
<line style="stroke:#555555;stroke-width:1;" x1="410.4143" x2="410.4143" y1="745.0156" y2="765.0156"/>
<polygon fill="#555555" points="406.4143,755.0156,410.4143,765.0156,414.4143,755.0156,410.4143,759.0156" style="stroke:#555555;stroke-width:1;"/>
<line style="stroke:#555555;stroke-width:1;" x1="410.4143" x2="410.4143" y1="798.9844" y2="818.9844"/>
<polygon fill="#555555" points="406.4143,808.9844,410.4143,818.9844,414.4143,808.9844,410.4143,812.9844" style="stroke:#555555;stroke-width:1;"/>
<line style="stroke:#555555;stroke-width:1;" x1="410.4143" x2="410.4143" y1="852.9531" y2="872.9531"/>
<polygon fill="#555555" points="406.4143,862.9531,410.4143,872.9531,414.4143,862.9531,410.4143,866.9531" style="stroke:#555555;stroke-width:1;"/>
<line style="stroke:#555555;stroke-width:1;" x1="292.9529" x2="282.9529" y1="938.9219" y2="938.9219"/>
<line style="stroke:#555555;stroke-width:1;" x1="282.9529" x2="282.9529" y1="938.9219" y2="960.9219"/>
<polygon fill="#555555" points="278.9529,950.9219,282.9529,960.9219,286.9529,950.9219,282.9529,954.9219" style="stroke:#555555;stroke-width:1;"/>
<line style="stroke:#555555;stroke-width:1;" x1="527.8757" x2="537.8757" y1="938.9219" y2="938.9219"/>
<line style="stroke:#555555;stroke-width:1;" x1="537.8757" x2="537.8757" y1="938.9219" y2="960.9219"/>
<polygon fill="#555555" points="533.8757,950.9219,537.8757,960.9219,541.8757,950.9219,537.8757,954.9219" style="stroke:#555555;stroke-width:1;"/>
<line style="stroke:#555555;stroke-width:1;" x1="282.9529" x2="282.9529" y1="994.8906" y2="1012.8906"/>
<line style="stroke:#555555;stroke-width:1;" x1="282.9529" x2="398.4143" y1="1012.8906" y2="1012.8906"/>
<polygon fill="#555555" points="388.4143,1008.8906,398.4143,1012.8906,388.4143,1016.8906,392.4143,1012.8906" style="stroke:#555555;stroke-width:1;"/>
<line style="stroke:#555555;stroke-width:1;" x1="537.8757" x2="537.8757" y1="994.8906" y2="1012.8906"/>
<line style="stroke:#555555;stroke-width:1;" x1="537.8757" x2="422.4143" y1="1012.8906" y2="1012.8906"/>
<polygon fill="#555555" points="432.4143,1008.8906,422.4143,1012.8906,432.4143,1016.8906,428.4143,1012.8906" style="stroke:#555555;stroke-width:1;"/>
<line style="stroke:#555555;stroke-width:1;" x1="410.4143" x2="410.4143" y1="906.9219" y2="926.9219"/>
<polygon fill="#555555" points="406.4143,916.9219,410.4143,926.9219,414.4143,916.9219,410.4143,920.9219" style="stroke:#555555;stroke-width:1;"/>
<line style="stroke:#555555;stroke-width:1;" x1="410.4143" x2="410.4143" y1="1024.8906" y2="1044.8906"/>
<polygon fill="#555555" points="406.4143,1034.8906,410.4143,1044.8906,414.4143,1034.8906,410.4143,1038.8906" style="stroke:#555555;stroke-width:1;"/>
<line style="stroke:#555555;stroke-width:1;" x1="324.4329" x2="279.8201" y1="1110.8594" y2="1110.8594"/>
<line style="stroke:#555555;stroke-width:1;" x1="279.8201" x2="279.8201" y1="1110.8594" y2="1132.8594"/>
<polygon fill="#555555" points="275.8201,1122.8594,279.8201,1132.8594,283.8201,1122.8594,279.8201,1126.8594" style="stroke:#555555;stroke-width:1;"/>
<line style="stroke:#555555;stroke-width:1;" x1="496.3958" x2="541.0085" y1="1110.8594" y2="1110.8594"/>
<line style="stroke:#555555;stroke-width:1;" x1="541.0085" x2="541.0085" y1="1110.8594" y2="1132.8594"/>
<polygon fill="#555555" points="537.0085,1122.8594,541.0085,1132.8594,545.0085,1122.8594,541.0085,1126.8594" style="stroke:#555555;stroke-width:1;"/>
<line style="stroke:#555555;stroke-width:1;" x1="279.8201" x2="279.8201" y1="1166.8281" y2="1184.8281"/>
<line style="stroke:#555555;stroke-width:1;" x1="279.8201" x2="398.4143" y1="1184.8281" y2="1184.8281"/>
<polygon fill="#555555" points="388.4143,1180.8281,398.4143,1184.8281,388.4143,1188.8281,392.4143,1184.8281" style="stroke:#555555;stroke-width:1;"/>
<line style="stroke:#555555;stroke-width:1;" x1="541.0085" x2="541.0085" y1="1166.8281" y2="1184.8281"/>
<line style="stroke:#555555;stroke-width:1;" x1="541.0085" x2="422.4143" y1="1184.8281" y2="1184.8281"/>
<polygon fill="#555555" points="432.4143,1180.8281,422.4143,1184.8281,432.4143,1188.8281,428.4143,1184.8281" style="stroke:#555555;stroke-width:1;"/>
<line style="stroke:#555555;stroke-width:1;" x1="410.4143" x2="410.4143" y1="1078.8594" y2="1098.8594"/>
<polygon fill="#555555" points="406.4143,1088.8594,410.4143,1098.8594,414.4143,1088.8594,410.4143,1092.8594" style="stroke:#555555;stroke-width:1;"/>
<line style="stroke:#555555;stroke-width:1;" x1="410.4143" x2="410.4143" y1="1196.8281" y2="1253.793"/>
<polygon fill="#555555" points="406.4143,1243.793,410.4143,1253.793,414.4143,1243.793,410.4143,1247.793" style="stroke:#555555;stroke-width:1;"/>
</g>
</svg>
